<svg width="24" height="24" viewBox="0 0 24 24" fill="none" xmlns="http://www.w3.org/2000/svg">
<path d="M1 12.5C1 12.8978 1.14487 13.2794 1.40273 13.5607C1.66059 13.842 2.01033 14 2.375 14C2.73967 14 3.08941 13.842 3.34727 13.5607C3.60513 13.2794 3.75 12.8978 3.75 12.5C3.75 12.1022 3.60513 11.7206 3.34727 11.4393C3.08941 11.158 2.73967 11 2.375 11C2.01033 11 1.66059 11.158 1.40273 11.4393C1.14487 11.7206 1 12.1022 1 12.5ZM10.625 12.5C10.625 12.8978 10.7699 13.2794 11.0277 13.5607C11.2856 13.842 11.6353 14 12 14C12.3647 14 12.7144 13.842 12.9723 13.5607C13.2301 13.2794 13.375 12.8978 13.375 12.5C13.375 12.1022 13.2301 11.7206 12.9723 11.4393C12.7144 11.158 12.3647 11 12 11C11.6353 11 11.2856 11.158 11.0277 11.4393C10.7699 11.7206 10.625 12.1022 10.625 12.5ZM20.25 12.5C20.25 12.8978 20.3949 13.2794 20.6527 13.5607C20.9106 13.842 21.2603 14 21.625 14C21.9897 14 22.3394 13.842 22.5973 13.5607C22.8551 13.2794 23 12.8978 23 12.5C23 12.1022 22.8551 11.7206 22.5973 11.4393C22.3394 11.158 21.9897 11 21.625 11C21.2603 11 20.9106 11.158 20.6527 11.4393C20.3949 11.7206 20.25 12.1022 20.25 12.5Z" stroke="black" stroke-width="2" stroke-linecap="round" stroke-linejoin="round"/>
</svg>

