<svg width="148" height="40" viewBox="0 0 148 40" fill="none" xmlns="http://www.w3.org/2000/svg">
<path d="M0.5 16C0.5 7.43959 7.43959 0.5 16 0.5H132C140.56 0.5 147.5 7.43959 147.5 16V24C147.5 32.5604 140.56 39.5 132 39.5H16C7.43959 39.5 0.5 32.5604 0.5 24V16Z" stroke="#66BB6A"/>
<path d="M33.0391 12.5376L47.8353 27.3338" stroke="#66BB6A" stroke-width="2.7" stroke-linecap="round"/>
<path d="M33.0391 27.334L47.8353 12.5378" stroke="#66BB6A" stroke-width="2.53125" stroke-linecap="round"/>
<path d="M56.554 28.142C56.11 28.142 55.864 27.8 55.816 27.116C56.212 27.032 56.536 26.918 56.788 26.774C57.04 26.642 57.238 26.498 57.382 26.342C57.526 26.198 57.628 25.964 57.688 25.64C57.76 25.316 57.802 25.022 57.814 24.758C57.826 24.494 57.832 24.092 57.832 23.552C57.832 23.3 57.826 22.514 57.814 21.194C57.814 19.862 57.814 18.878 57.814 18.242C57.814 16.55 57.772 15.158 57.688 14.066C57.892 14.03 58.138 14.012 58.426 14.012C59.014 14.012 59.308 14.24 59.308 14.696C59.308 14.756 59.296 14.978 59.272 15.362C59.248 15.746 59.224 16.226 59.2 16.802C59.176 17.366 59.164 17.906 59.164 18.422V24.002C59.164 24.662 59.092 25.25 58.948 25.766C58.804 26.282 58.624 26.684 58.408 26.972C58.204 27.26 57.97 27.494 57.706 27.674C57.454 27.866 57.232 27.992 57.04 28.052C56.86 28.112 56.698 28.142 56.554 28.142ZM66.2076 26.126C64.8156 26.126 63.7056 25.694 62.8776 24.83C62.0496 23.966 61.6356 22.808 61.6356 21.356C61.6356 19.892 62.0496 18.728 62.8776 17.864C63.7056 17 64.8156 16.568 66.2076 16.568C67.6116 16.568 68.7276 17 69.5556 17.864C70.3956 18.728 70.8156 19.892 70.8156 21.356C70.8156 22.808 70.3956 23.966 69.5556 24.83C68.7276 25.694 67.6116 26.126 66.2076 26.126ZM69.3756 21.608C69.3756 20.924 69.2796 20.288 69.0876 19.7C68.8956 19.112 68.5476 18.608 68.0436 18.188C67.5516 17.768 66.9456 17.558 66.2256 17.558C65.2536 17.558 64.4796 17.876 63.9036 18.512C63.3396 19.148 63.0576 19.958 63.0576 20.942C63.0576 21.662 63.1536 22.328 63.3456 22.94C63.5376 23.552 63.8796 24.074 64.3716 24.506C64.8636 24.938 65.4756 25.154 66.2076 25.154C67.2156 25.154 67.9956 24.83 68.5476 24.182C69.0996 23.522 69.3756 22.664 69.3756 21.608ZM73.5169 16.766C73.7329 16.694 73.9849 16.658 74.2729 16.658C74.5969 16.658 74.8309 16.712 74.9749 16.82C75.1309 16.928 75.2089 17.114 75.2089 17.378C75.2089 17.774 75.1669 18.644 75.0829 19.988C75.0109 21.332 74.9749 22.382 74.9749 23.138C74.9749 23.774 75.1609 24.254 75.5329 24.578C75.9049 24.902 76.3429 25.064 76.8469 25.064C77.3029 25.064 77.7829 24.956 78.2869 24.74C78.7909 24.524 79.1989 24.272 79.5109 23.984C79.5109 23.924 79.5109 23.774 79.5109 23.534C79.5229 23.282 79.5289 22.856 79.5289 22.256C79.5289 21.656 79.5289 20.888 79.5289 19.952C79.5289 18.704 79.4929 17.624 79.4209 16.712C79.6129 16.676 79.8469 16.658 80.1229 16.658C80.6749 16.658 80.9509 16.838 80.9509 17.198C80.9509 17.21 80.9389 17.384 80.9149 17.72C80.9029 18.044 80.8849 18.554 80.8609 19.25C80.8369 19.946 80.8249 20.75 80.8249 21.662C80.8249 23.114 80.8369 24.086 80.8609 24.578C80.8969 25.07 80.9809 25.526 81.1129 25.946C80.9089 26.006 80.6449 26.036 80.3209 26.036C80.0089 26.036 79.7929 25.982 79.6729 25.874C79.5529 25.754 79.4929 25.538 79.4929 25.226V25.01C79.0969 25.334 78.6289 25.604 78.0889 25.82C77.5489 26.024 77.0509 26.126 76.5949 26.126C75.6829 26.126 74.9569 25.922 74.4169 25.514C73.8889 25.106 73.6249 24.374 73.6249 23.318C73.6249 22.766 73.6429 22.022 73.6789 21.086C73.7269 20.138 73.7509 19.436 73.7509 18.98C73.7509 18.068 73.6729 17.33 73.5169 16.766ZM89.7117 24.74C89.9757 25.004 90.2637 25.136 90.5757 25.136C90.6357 25.136 90.7617 25.124 90.9537 25.1C91.0377 25.268 91.0797 25.424 91.0797 25.568C91.0797 25.94 90.6897 26.126 89.9097 26.126C89.5617 26.126 89.2257 26 88.9017 25.748C88.5777 25.484 88.2657 25.112 87.9657 24.632C87.6657 24.14 87.4317 23.732 87.2637 23.408C87.1077 23.072 86.9157 22.646 86.6877 22.13C86.4597 22.082 86.3457 21.962 86.3457 21.77C86.3457 21.65 86.3877 21.47 86.4717 21.23C86.7357 21.29 86.9637 21.32 87.1557 21.32C87.7077 21.32 88.1577 21.152 88.5057 20.816C88.8537 20.468 89.0277 20 89.0277 19.412C89.0277 18.716 88.8357 18.23 88.4517 17.954C88.0677 17.678 87.4797 17.54 86.6877 17.54C86.6157 17.54 86.2557 17.558 85.6077 17.594C85.6557 18.146 85.6797 19.088 85.6797 20.42V23.192C85.6797 24.44 85.7697 25.358 85.9497 25.946C85.7457 26.006 85.4817 26.036 85.1577 26.036C84.8337 26.036 84.6117 25.976 84.4917 25.856C84.3837 25.736 84.3297 25.532 84.3297 25.244C84.3297 25.1 84.3357 24.734 84.3477 24.146C84.3597 23.558 84.3657 23.096 84.3657 22.76V19.952C84.3657 18.632 84.2997 17.558 84.1677 16.73C84.8157 16.622 85.5717 16.568 86.4357 16.568C89.1237 16.568 90.4677 17.51 90.4677 19.394C90.4677 20.138 90.2517 20.744 89.8197 21.212C89.3997 21.68 88.8357 21.992 88.1277 22.148C88.8597 23.552 89.3877 24.416 89.7117 24.74ZM100.651 26C100.411 26.024 100.225 26.036 100.093 26.036C99.6847 26.036 99.3967 25.916 99.2287 25.676C98.8687 25.124 98.1907 24.02 97.1947 22.364C96.1987 20.708 95.3827 19.418 94.7467 18.494C94.7707 19.394 94.7827 20.81 94.7827 22.742C94.7827 24.326 94.8787 25.394 95.0707 25.946C94.8547 26.006 94.6447 26.036 94.4407 26.036C94.1167 26.036 93.9007 25.976 93.7927 25.856C93.6847 25.736 93.6307 25.532 93.6307 25.244C93.6307 25.1 93.6307 24.734 93.6307 24.146C93.6427 23.558 93.6487 23.096 93.6487 22.76V19.952C93.6487 18.392 93.5587 17.324 93.3787 16.748C93.5947 16.676 93.8527 16.64 94.1527 16.64C94.5247 16.64 94.8367 16.778 95.0887 17.054C95.5567 17.534 96.2407 18.482 97.1407 19.898C98.0407 21.314 98.8327 22.652 99.5167 23.912C99.4567 23.048 99.4267 21.758 99.4267 20.042C99.4267 18.746 99.3907 17.63 99.3187 16.694C99.5107 16.67 99.6847 16.658 99.8407 16.658C100.393 16.658 100.669 16.838 100.669 17.198C100.669 17.246 100.657 17.432 100.633 17.756C100.621 18.08 100.603 18.482 100.579 18.962C100.567 19.442 100.561 19.898 100.561 20.33V22.742C100.561 24.146 100.591 25.232 100.651 26ZM108.188 22.202C107.96 21.662 107.474 20.384 106.73 18.368C106.13 20.096 105.656 21.368 105.308 22.184C106.028 22.208 106.58 22.22 106.964 22.22C107.528 22.22 107.936 22.214 108.188 22.202ZM106.676 23.174C106.424 23.174 105.842 23.162 104.93 23.138C104.87 23.282 104.738 23.6 104.534 24.092C104.342 24.584 104.186 24.998 104.066 25.334C103.946 25.658 103.844 25.976 103.76 26.288C103.052 26.192 102.698 26.006 102.698 25.73C102.698 25.61 102.752 25.412 102.86 25.136C102.98 24.86 103.178 24.404 103.454 23.768C103.742 23.12 104.012 22.472 104.264 21.824C105.2 19.412 105.812 17.72 106.1 16.748C106.292 16.712 106.514 16.694 106.766 16.694C107.03 16.694 107.216 16.736 107.324 16.82C107.432 16.892 107.552 17.102 107.684 17.45C107.78 17.702 108.038 18.404 108.458 19.556C108.89 20.696 109.226 21.572 109.466 22.184C110.042 23.6 110.606 24.83 111.158 25.874C110.822 26.042 110.552 26.126 110.348 26.126C109.988 26.126 109.742 26.006 109.61 25.766C109.538 25.598 109.184 24.722 108.548 23.138C107.516 23.162 106.892 23.174 106.676 23.174ZM112.858 22.868V19.952C112.858 18.704 112.822 17.618 112.75 16.694C112.942 16.67 113.176 16.658 113.452 16.658C114.004 16.658 114.28 16.838 114.28 17.198C114.28 17.246 114.268 17.432 114.244 17.756C114.232 18.08 114.214 18.482 114.19 18.962C114.166 19.442 114.154 19.898 114.154 20.33V21.572C114.154 23.468 114.19 24.614 114.262 25.01C114.67 25.034 114.988 25.046 115.216 25.046C116.716 25.046 117.688 24.938 118.132 24.722C118.204 24.95 118.24 25.178 118.24 25.406C118.24 25.598 118.198 25.736 118.114 25.82C117.934 25.952 117.16 26.018 115.792 26.018C115.528 26.018 115.09 26.012 114.478 26C113.878 26 113.56 26 113.524 26C113.248 25.988 113.062 25.922 112.966 25.802C112.87 25.682 112.822 25.484 112.822 25.208C112.822 25.064 112.828 24.722 112.84 24.182C112.852 23.642 112.858 23.204 112.858 22.868Z" fill="#6A6A6A"/>
</svg>
