<svg width="172" height="64" viewBox="0 0 172 64" fill="none" xmlns="http://www.w3.org/2000/svg">
<path d="M0.5 24C0.5 11.0213 11.0213 0.5 24 0.5H148C160.979 0.5 171.5 11.0213 171.5 24V40C171.5 52.9787 160.979 63.5 148 63.5H24C11.0213 63.5 0.5 52.9787 0.5 40V24Z" stroke="#66BB6A"/>
<path d="M30.05 22.05L49.7783 41.7783" stroke="#66BB6A" stroke-width="3.6" stroke-linecap="round"/>
<path d="M30.05 41.7783L49.7783 22.05" stroke="#66BB6A" stroke-width="3.375" stroke-linecap="round"/>
<path d="M64.072 43.856C63.48 43.856 63.152 43.4 63.088 42.488C63.616 42.376 64.048 42.224 64.384 42.032C64.72 41.856 64.984 41.664 65.176 41.456C65.368 41.264 65.504 40.952 65.584 40.52C65.68 40.088 65.736 39.696 65.752 39.344C65.768 38.992 65.776 38.456 65.776 37.736C65.776 37.4 65.768 36.352 65.752 34.592C65.752 32.816 65.752 31.504 65.752 30.656C65.752 28.4 65.696 26.544 65.584 25.088C65.856 25.04 66.184 25.016 66.568 25.016C67.352 25.016 67.744 25.32 67.744 25.928C67.744 26.008 67.728 26.304 67.696 26.816C67.664 27.328 67.632 27.968 67.6 28.736C67.568 29.488 67.552 30.208 67.552 30.896V38.336C67.552 39.216 67.456 40 67.264 40.688C67.072 41.376 66.832 41.912 66.544 42.296C66.272 42.68 65.96 42.992 65.608 43.232C65.272 43.488 64.976 43.656 64.72 43.736C64.48 43.816 64.264 43.856 64.072 43.856ZM76.9434 41.168C75.0874 41.168 73.6074 40.592 72.5034 39.44C71.3994 38.288 70.8474 36.744 70.8474 34.808C70.8474 32.856 71.3994 31.304 72.5034 30.152C73.6074 29 75.0874 28.424 76.9434 28.424C78.8154 28.424 80.3034 29 81.4074 30.152C82.5274 31.304 83.0874 32.856 83.0874 34.808C83.0874 36.744 82.5274 38.288 81.4074 39.44C80.3034 40.592 78.8154 41.168 76.9434 41.168ZM81.1674 35.144C81.1674 34.232 81.0394 33.384 80.7834 32.6C80.5274 31.816 80.0634 31.144 79.3914 30.584C78.7354 30.024 77.9274 29.744 76.9674 29.744C75.6714 29.744 74.6394 30.168 73.8714 31.016C73.1194 31.864 72.7434 32.944 72.7434 34.256C72.7434 35.216 72.8714 36.104 73.1274 36.92C73.3834 37.736 73.8394 38.432 74.4954 39.008C75.1514 39.584 75.9674 39.872 76.9434 39.872C78.2874 39.872 79.3274 39.44 80.0634 38.576C80.7994 37.696 81.1674 36.552 81.1674 35.144ZM86.6892 28.688C86.9772 28.592 87.3132 28.544 87.6972 28.544C88.1292 28.544 88.4412 28.616 88.6332 28.76C88.8412 28.904 88.9452 29.152 88.9452 29.504C88.9452 30.032 88.8892 31.192 88.7772 32.984C88.6812 34.776 88.6332 36.176 88.6332 37.184C88.6332 38.032 88.8812 38.672 89.3772 39.104C89.8732 39.536 90.4572 39.752 91.1292 39.752C91.7372 39.752 92.3772 39.608 93.0492 39.32C93.7212 39.032 94.2652 38.696 94.6812 38.312C94.6812 38.232 94.6812 38.032 94.6812 37.712C94.6972 37.376 94.7052 36.808 94.7052 36.008C94.7052 35.208 94.7052 34.184 94.7052 32.936C94.7052 31.272 94.6572 29.832 94.5612 28.616C94.8172 28.568 95.1292 28.544 95.4972 28.544C96.2332 28.544 96.6012 28.784 96.6012 29.264C96.6012 29.28 96.5852 29.512 96.5532 29.96C96.5372 30.392 96.5132 31.072 96.4812 32C96.4492 32.928 96.4332 34 96.4332 35.216C96.4332 37.152 96.4492 38.448 96.4812 39.104C96.5292 39.76 96.6412 40.368 96.8172 40.928C96.5452 41.008 96.1932 41.048 95.7612 41.048C95.3452 41.048 95.0572 40.976 94.8972 40.832C94.7372 40.672 94.6572 40.384 94.6572 39.968V39.68C94.1292 40.112 93.5052 40.472 92.7852 40.76C92.0652 41.032 91.4012 41.168 90.7932 41.168C89.5772 41.168 88.6092 40.896 87.8892 40.352C87.1852 39.808 86.8332 38.832 86.8332 37.424C86.8332 36.688 86.8572 35.696 86.9052 34.448C86.9692 33.184 87.0012 32.248 87.0012 31.64C87.0012 30.424 86.8972 29.44 86.6892 28.688ZM108.282 39.32C108.634 39.672 109.018 39.848 109.434 39.848C109.514 39.848 109.682 39.832 109.938 39.8C110.05 40.024 110.106 40.232 110.106 40.424C110.106 40.92 109.586 41.168 108.546 41.168C108.082 41.168 107.634 41 107.202 40.664C106.77 40.312 106.354 39.816 105.954 39.176C105.554 38.52 105.242 37.976 105.018 37.544C104.81 37.096 104.554 36.528 104.25 35.84C103.946 35.776 103.794 35.616 103.794 35.36C103.794 35.2 103.85 34.96 103.962 34.64C104.314 34.72 104.618 34.76 104.874 34.76C105.61 34.76 106.21 34.536 106.674 34.088C107.138 33.624 107.37 33 107.37 32.216C107.37 31.288 107.114 30.64 106.602 30.272C106.09 29.904 105.306 29.72 104.25 29.72C104.154 29.72 103.674 29.744 102.81 29.792C102.874 30.528 102.906 31.784 102.906 33.56V37.256C102.906 38.92 103.026 40.144 103.266 40.928C102.994 41.008 102.642 41.048 102.21 41.048C101.778 41.048 101.482 40.968 101.322 40.808C101.178 40.648 101.106 40.376 101.106 39.992C101.106 39.8 101.114 39.312 101.13 38.528C101.146 37.744 101.154 37.128 101.154 36.68V32.936C101.154 31.176 101.066 29.744 100.89 28.64C101.754 28.496 102.762 28.424 103.914 28.424C107.498 28.424 109.29 29.68 109.29 32.192C109.29 33.184 109.002 33.992 108.426 34.616C107.866 35.24 107.114 35.656 106.17 35.864C107.146 37.736 107.85 38.888 108.282 39.32ZM122.868 41C122.548 41.032 122.3 41.048 122.124 41.048C121.58 41.048 121.196 40.888 120.972 40.568C120.492 39.832 119.588 38.36 118.26 36.152C116.932 33.944 115.844 32.224 114.996 30.992C115.028 32.192 115.044 34.08 115.044 36.656C115.044 38.768 115.172 40.192 115.428 40.928C115.14 41.008 114.86 41.048 114.588 41.048C114.156 41.048 113.868 40.968 113.724 40.808C113.58 40.648 113.508 40.376 113.508 39.992C113.508 39.8 113.508 39.312 113.508 38.528C113.524 37.744 113.532 37.128 113.532 36.68V32.936C113.532 30.856 113.412 29.432 113.172 28.664C113.46 28.568 113.804 28.52 114.204 28.52C114.7 28.52 115.116 28.704 115.452 29.072C116.076 29.712 116.988 30.976 118.188 32.864C119.388 34.752 120.444 36.536 121.356 38.216C121.276 37.064 121.236 35.344 121.236 33.056C121.236 31.328 121.188 29.84 121.092 28.592C121.348 28.56 121.58 28.544 121.788 28.544C122.524 28.544 122.892 28.784 122.892 29.264C122.892 29.328 122.876 29.576 122.844 30.008C122.828 30.44 122.804 30.976 122.772 31.616C122.756 32.256 122.748 32.864 122.748 33.44V36.656C122.748 38.528 122.788 39.976 122.868 41ZM132.918 35.936C132.614 35.216 131.966 33.512 130.974 30.824C130.174 33.128 129.542 34.824 129.078 35.912C130.038 35.944 130.774 35.96 131.286 35.96C132.038 35.96 132.582 35.952 132.918 35.936ZM130.902 37.232C130.566 37.232 129.79 37.216 128.574 37.184C128.494 37.376 128.318 37.8 128.046 38.456C127.79 39.112 127.582 39.664 127.422 40.112C127.262 40.544 127.126 40.968 127.014 41.384C126.07 41.256 125.598 41.008 125.598 40.64C125.598 40.48 125.67 40.216 125.814 39.848C125.974 39.48 126.238 38.872 126.606 38.024C126.99 37.16 127.35 36.296 127.686 35.432C128.934 32.216 129.75 29.96 130.134 28.664C130.39 28.616 130.686 28.592 131.022 28.592C131.374 28.592 131.622 28.648 131.766 28.76C131.91 28.856 132.07 29.136 132.246 29.6C132.374 29.936 132.718 30.872 133.278 32.408C133.854 33.928 134.302 35.096 134.622 35.912C135.39 37.8 136.142 39.44 136.878 40.832C136.43 41.056 136.07 41.168 135.798 41.168C135.318 41.168 134.99 41.008 134.814 40.688C134.718 40.464 134.246 39.296 133.398 37.184C132.022 37.216 131.19 37.232 130.902 37.232ZM139.144 36.824V32.936C139.144 31.272 139.096 29.824 139 28.592C139.256 28.56 139.568 28.544 139.936 28.544C140.672 28.544 141.04 28.784 141.04 29.264C141.04 29.328 141.024 29.576 140.992 30.008C140.976 30.44 140.952 30.976 140.92 31.616C140.888 32.256 140.872 32.864 140.872 33.44V35.096C140.872 37.624 140.92 39.152 141.016 39.68C141.56 39.712 141.984 39.728 142.288 39.728C144.288 39.728 145.584 39.584 146.176 39.296C146.272 39.6 146.32 39.904 146.32 40.208C146.32 40.464 146.264 40.648 146.152 40.76C145.912 40.936 144.88 41.024 143.056 41.024C142.704 41.024 142.12 41.016 141.304 41C140.504 41 140.08 41 140.032 41C139.664 40.984 139.416 40.896 139.288 40.736C139.16 40.576 139.096 40.312 139.096 39.944C139.096 39.752 139.104 39.296 139.12 38.576C139.136 37.856 139.144 37.272 139.144 36.824Z" fill="#6A6A6A"/>
</svg>
