<svg width="25" height="25" viewBox="0 0 25 25" fill="none" xmlns="http://www.w3.org/2000/svg">
<g id="Icons/20px">
<path id="Union" fill-rule="evenodd" clip-rule="evenodd" d="M8.09991 11.1004H10.8292L8.09991 13.8487V11.1004ZM5.09991 10.9004H5.17479C5.3447 10.2657 5.58978 9.66168 5.89991 9.09855V8.1004H5.09991V10.9004ZM4.89991 10.9004H0.99991V11.1004H4.89991V13.0004V13.9004H0.99991V14.1004H4.89991V17.0711L1.06791 20.9299L1.20982 21.0709L4.89991 17.355V18.0004C4.89991 18.6079 5.3924 19.1004 5.99991 19.1004H6.89991V20.0004C6.89991 20.6079 7.3924 21.1004 7.99991 21.1004H12.9999H17.9999C18.6074 21.1004 19.0999 20.6079 19.0999 20.0004V19.2418L20.9292 21.0711L21.0706 20.9297L19.2413 19.1004H19.9999C20.6074 19.1004 21.0999 18.6079 21.0999 18.0004V13.0004V8.0004C21.0999 7.39289 20.6074 6.9004 19.9999 6.9004H19.0999V6.0004C19.0999 5.39289 18.6074 4.9004 17.9999 4.9004H17.2679L21.0709 1.07086L20.929 0.929934L16.9861 4.9004H14.0999V1.0004H13.8999V4.9004H12.9999H11.0999V1.0004H10.8999V4.9004H8.09991V1.0004H7.89991V4.90488C7.33926 4.95541 6.89991 5.42659 6.89991 6.0004V6.75898L1.07062 0.929688L0.929199 1.07111L6.75849 6.9004H5.99991C5.42611 6.9004 4.95492 7.33975 4.90439 7.9004H0.99991V8.1004H4.89991V10.9004ZM5.1054 7.9004C5.15515 7.4504 5.53665 7.1004 5.99991 7.1004H6.36729C6.11021 7.28144 5.93418 7.56983 5.90439 7.9004H5.1054ZM7.24133 7.1004L7.34349 7.20256C7.37872 7.16818 7.41425 7.13413 7.4501 7.1004H7.24133ZM7.74622 7.1004C7.65729 7.17964 7.57017 7.26086 7.48492 7.34399L7.89991 7.75898V7.1004H7.74622ZM8.09991 7.1004V7.9004H10.8999V7.1004H8.09991ZM11.0999 7.1004V7.9004H13.8999V7.1004H11.0999ZM14.0999 7.1004V7.80675L14.8014 7.1004H14.0999ZM15.0832 7.1004L14.2888 7.9004H18.8999V7.74671C18.6971 7.51907 18.4812 7.30324 18.2536 7.1004H15.0832ZM18.5497 7.1004C18.67 7.21355 18.7868 7.33034 18.8999 7.45059V7.1004H18.5497ZM19.6325 7.1004C19.8896 7.28144 20.0656 7.56983 20.0954 7.9004H20.8944C20.8447 7.4504 20.4632 7.1004 19.9999 7.1004H19.6325ZM20.8999 8.1004H20.0999V9.09855C20.41 9.66168 20.6551 10.2657 20.825 10.9004H20.8999V8.1004ZM20.8999 11.1004H20.8758C20.8841 11.1347 20.8921 11.1691 20.8999 11.2035V11.1004ZM20.8999 13.0004C20.8999 12.3454 20.8202 11.709 20.6699 11.1004H20.0999V13.9004H20.8492C20.8827 13.605 20.8999 13.3047 20.8999 13.0004ZM7.09991 6.9004H7.67057C7.7458 6.83462 7.82226 6.77021 7.89991 6.7072V5.10589C7.44991 5.15563 7.09991 5.53714 7.09991 6.0004V6.9004ZM8.09991 6.9004H10.8999V5.38256C9.86634 5.66684 8.91756 6.15584 8.09991 6.80322V6.9004ZM11.0999 6.9004H13.8999V5.1511C13.6045 5.11761 13.3042 5.1004 12.9999 5.1004C12.3449 5.1004 11.7085 5.18011 11.0999 5.33037V6.9004ZM14.0999 6.9004H15L16.1423 5.75008C15.5012 5.47182 14.8159 5.27611 14.0999 5.17637V6.9004ZM15.2818 6.9004H18.0202C17.5091 6.47923 16.9441 6.12106 16.3371 5.83778L15.2818 6.9004ZM18.3292 6.9004H18.8999V6.0004C18.8999 5.50334 18.497 5.1004 17.9999 5.1004H17.0693L16.4866 5.68717C17.1569 6.0073 17.7762 6.41686 18.3292 6.9004ZM20.8999 14.7972C20.731 15.5432 20.459 16.2501 20.0999 16.9022V18.0004C20.0999 18.3724 19.9152 18.7013 19.6325 18.9004H19.9999C20.497 18.9004 20.8999 18.4975 20.8999 18.0004V14.7972ZM18.7585 18.9004L18.6563 18.7982C18.6211 18.8326 18.5856 18.8667 18.5497 18.9004H18.7585ZM18.2536 18.9004C18.3425 18.8212 18.4296 18.7399 18.5149 18.6568L14.0999 14.2418V18.9004H18.2536ZM13.8999 18.9004V14.1004H11.0999V18.9004H13.8999ZM10.8999 18.9004V14.1004H8.13185L8.09991 14.1326V18.9004H10.8999ZM7.89991 18.9004V14.334L7.09991 15.1396V18.2541C7.30276 18.4817 7.51858 18.6976 7.74622 18.9004H7.89991ZM7.4501 18.9004C7.32985 18.7872 7.21306 18.6705 7.09991 18.5502V18.9004H7.4501ZM6.36729 18.9004C6.0846 18.7013 5.89991 18.3724 5.89991 18.0004V16.9022C5.83404 16.7826 5.7711 16.6612 5.7112 16.538L5.09991 17.1536V18.0004C5.09991 18.4975 5.50285 18.9004 5.99991 18.9004H6.36729ZM5.09991 16.8697L5.62065 16.3453C5.39739 15.8536 5.22184 15.3356 5.09991 14.7972V16.8697ZM5.09991 13.0004C5.09991 13.3047 5.11712 13.605 5.15061 13.9004H5.89991V11.1004H5.32988C5.17963 11.709 5.09991 12.3454 5.09991 13.0004ZM18.8999 19.1004H18.3292C17.336 19.9689 16.1286 20.5987 14.7968 20.9004H17.9999C18.497 20.9004 18.8999 20.4975 18.8999 20.0004V19.1004ZM18.0202 19.1004H14.0999V20.8244C15.5766 20.6187 16.9226 20.0048 18.0202 19.1004ZM13.8999 19.1004H11.0999V20.6704C11.7085 20.8207 12.3449 20.9004 12.9999 20.9004C13.3042 20.9004 13.6045 20.8832 13.8999 20.8497V19.1004ZM10.8999 19.1004H8.09991V19.1976C8.91756 19.845 9.86634 20.334 10.8999 20.6182V19.1004ZM7.67057 19.1004H7.09991V20.0004C7.09991 20.4637 7.44991 20.8452 7.89991 20.8949V19.2936C7.82226 19.2306 7.7458 19.1662 7.67057 19.1004ZM5.09991 11.2036V11.1004H5.12399C5.11574 11.1347 5.10772 11.1691 5.09991 11.2036ZM6.1054 7.9004C6.15152 7.48324 6.48275 7.15201 6.89991 7.10589V7.67106C6.83413 7.74629 6.76972 7.82275 6.70672 7.9004H6.1054ZM7.09991 7.24182V7.45059C7.13364 7.41474 7.1677 7.3792 7.20207 7.34398L7.09991 7.24182ZM7.09991 7.74671V7.9004H7.75849L7.3435 7.48541C7.26037 7.57066 7.17915 7.65778 7.09991 7.74671ZM6.80273 8.1004H6.89991V10.9004H6.09991V9.1504C6.30641 8.78111 6.54169 8.43009 6.80273 8.1004ZM7.09991 8.1004V10.9004H7.89991V8.1004H7.09991ZM6.09991 11.1004H6.89991V13.9004H6.09991V11.1004ZM7.09991 11.1004V13.9004H7.89991V11.1004H7.09991ZM6.09991 14.1004H6.89991V15.0571L6.09991 15.8627V14.1004ZM7.09991 14.1004V14.8557L7.84999 14.1004H7.09991ZM6.09991 16.1466L6.89991 15.341V18.0207C6.59983 17.6565 6.33173 17.265 6.09991 16.8504V16.1466ZM6.09991 17.2452C6.3366 17.6291 6.60444 17.9918 6.89991 18.3297V18.8949C6.44991 18.8452 6.09991 18.4637 6.09991 18.0004V17.2452ZM10.8999 20.9004H8.09991V19.4508C8.92386 20.0776 9.87154 20.5502 10.8999 20.8255V20.9004ZM11.2031 20.9004H11.0999V20.8763C11.1342 20.8846 11.1686 20.8926 11.2031 20.9004ZM19.8999 18.0004C19.8999 18.4637 19.5499 18.8452 19.0999 18.8949V18.3297C19.3954 17.9918 19.6632 17.6291 19.8999 17.2452V18.0004ZM18.8999 18.759V18.5502C18.8662 18.5861 18.8321 18.6216 18.7978 18.6568L18.8999 18.759ZM19.8999 16.8504C19.6681 17.265 19.4 17.6565 19.0999 18.0207V14.1004H19.8999V16.8504ZM18.8999 18.2541V14.1004H14.2413L18.6563 18.5154C18.7395 18.4301 18.8207 18.343 18.8999 18.2541ZM19.8999 13.9004H19.0999V11.1004H19.8999V13.9004ZM18.8999 13.9004V11.1004H14.0999V13.9004H18.8999ZM19.8999 10.9004H19.0999V8.1004H19.1971C19.4581 8.43009 19.6934 8.78111 19.8999 9.1504V10.9004ZM18.8999 10.9004V8.1004H14.0999V10.9004H18.8999ZM19.2931 7.9004C19.2301 7.82275 19.1657 7.74629 19.0999 7.67106V7.10589C19.5171 7.15201 19.8483 7.48324 19.8944 7.9004H19.2931ZM14.7968 5.1004H16.7875L16.2934 5.59797C15.817 5.38571 15.3163 5.21808 14.7968 5.1004ZM11.0999 5.1004H11.2031C11.1686 5.1082 11.1342 5.11623 11.0999 5.12448V5.1004ZM10.8999 5.17527V5.1004H8.09991V6.55004C8.92386 5.92317 9.87154 5.45056 10.8999 5.17527ZM20.0999 16.4686C20.4586 15.7357 20.7071 14.9391 20.8239 14.1004H20.0999V16.4686ZM20.0999 10.9004H20.6178C20.487 10.4249 20.3128 9.96733 20.0999 9.53223V10.9004ZM19.8999 8.75559V8.1004H19.4503C19.6105 8.31095 19.7606 8.52959 19.8999 8.75559ZM6.09991 8.1004V8.75559C6.23924 8.52959 6.38936 8.31095 6.54956 8.1004H6.09991ZM5.89991 9.53223C5.68698 9.96733 5.51286 10.4249 5.38207 10.9004H5.89991V9.53223ZM5.89991 14.1004H5.17588C5.27824 14.8352 5.48168 15.5376 5.7717 16.1932L5.89991 16.0641V14.1004ZM5.89991 16.348L5.86076 16.3874C5.87366 16.4145 5.88671 16.4416 5.89991 16.4686V16.348ZM8.33047 13.9004H10.8999V11.313L8.33047 13.9004ZM11.0999 13.9004H13.7585L11.0999 11.2418V13.9004ZM10.7585 10.9004H8.09991V8.24182L10.7585 10.9004ZM13.8999 13.759L11.2413 11.1004H13.8999V13.759ZM11.3096 10.9004H13.8999V8.29199L11.3096 10.9004ZM8.24133 8.1004L10.8999 10.759V8.1004H8.24133ZM11.0999 8.1004V10.8277L13.8083 8.1004H11.0999Z" fill="#FF0000" fill-opacity="0.1"/>
<path id="Icon" d="M13 8V18M8 13H18" stroke="#E9E9E9" stroke-width="2" stroke-linecap="round" stroke-linejoin="round"/>
</g>
</svg>
