<svg width="44" height="44" viewBox="0 0 44 44" fill="none" xmlns="http://www.w3.org/2000/svg">
<path d="M26 16V15.2C26 14.0799 26 13.5198 25.782 13.092C25.5903 12.7157 25.2843 12.4097 24.908 12.218C24.4802 12 23.9201 12 22.8 12H21.2C20.0799 12 19.5198 12 19.092 12.218C18.7157 12.4097 18.4097 12.7157 18.218 13.092C18 13.5198 18 14.0799 18 15.2V16M13 16H31M29 16V27.2C29 28.8802 29 29.7202 28.673 30.362C28.3854 30.9265 27.9265 31.3854 27.362 31.673C26.7202 32 25.8802 32 24.2 32H19.8C18.1198 32 17.2798 32 16.638 31.673C16.0735 31.3854 15.6146 30.9265 15.327 30.362C15 29.7202 15 28.8802 15 27.2V16" stroke="#E43317" stroke-width="2" stroke-linecap="round" stroke-linejoin="round"/>
</svg>
